<svg xmlns="http://www.w3.org/2000/svg" viewBox="0 0 100 100">
  <!-- Piano / Keyboard - cartoon style -->
  <!-- Piano body -->
  <rect x="8" y="25" width="84" height="55" rx="6" fill="#2c2218" stroke="#1a1410" stroke-width="2"/>
  <!-- White keys -->
  <rect x="12" y="30" width="10" height="42" rx="2" fill="#fff8f0" stroke="#ccc0b0" stroke-width="0.8"/>
  <rect x="23" y="30" width="10" height="42" rx="2" fill="#fff8f0" stroke="#ccc0b0" stroke-width="0.8"/>
  <rect x="34" y="30" width="10" height="42" rx="2" fill="#fff8f0" stroke="#ccc0b0" stroke-width="0.8"/>
  <rect x="45" y="30" width="10" height="42" rx="2" fill="#fff8f0" stroke="#ccc0b0" stroke-width="0.8"/>
  <rect x="56" y="30" width="10" height="42" rx="2" fill="#fff8f0" stroke="#ccc0b0" stroke-width="0.8"/>
  <rect x="67" y="30" width="10" height="42" rx="2" fill="#fff8f0" stroke="#ccc0b0" stroke-width="0.8"/>
  <rect x="78" y="30" width="10" height="42" rx="2" fill="#fff8f0" stroke="#ccc0b0" stroke-width="0.8"/>
  <!-- Black keys -->
  <rect x="19" y="30" width="7" height="26" rx="1.5" fill="#2c2218"/>
  <rect x="30" y="30" width="7" height="26" rx="1.5" fill="#2c2218"/>
  <rect x="52" y="30" width="7" height="26" rx="1.5" fill="#2c2218"/>
  <rect x="63" y="30" width="7" height="26" rx="1.5" fill="#2c2218"/>
  <rect x="74" y="30" width="7" height="26" rx="1.5" fill="#2c2218"/>
  <!-- Top panel -->
  <rect x="8" y="20" width="84" height="10" rx="4" fill="#3d2f20" stroke="#1a1410" stroke-width="1"/>
</svg>
